# Blender 4.5.2 LTS
# www.blender.org
mtllib blockout_003.mtl
o Cylinder
v -21.984787 -1.000000 -0.114401
v 0.000000 -1.000000 -4.627295
v 0.000000 1.000000 -4.627295
v -2.500360 2.520453 -20.721004
v -6.107237 2.520453 -22.670887
v -1.253286 4.317271 -26.476044
v -1.249559 1.000000 -20.720001
v 0.000000 -1.000000 5.000000
v 0.000000 1.000000 5.000000
v -1.913417 -1.000000 4.619398
v -1.913417 1.000000 4.619398
v -3.535534 -1.000000 3.535534
v -3.535534 1.000000 3.535534
v -4.619398 -1.000000 1.913417
v -4.619398 1.000000 1.913417
v -4.625963 -1.000000 0.000000
v -4.625963 1.000000 0.000000
v -4.619398 -1.000000 -1.913417
v -4.619398 1.000000 -1.913417
v -3.535534 -1.000000 -3.535534
v -3.535534 1.000000 -3.535534
v -1.913417 -1.000000 -4.619398
v -1.913417 1.000000 -4.619398
v 0.000000 -1.000000 -16.474754
v 0.000000 1.000000 -14.999670
v -1.250531 1.000000 -17.768518
v 0.000000 -1.000000 21.790445
v 0.000000 1.000000 21.790445
v -1.913417 -1.000000 21.790749
v -1.913417 1.000000 21.790749
v -14.162106 1.000000 1.913417
v -14.162106 -1.000000 1.913417
v -14.162037 -1.000000 0.000000
v -14.162037 1.000000 0.000000
v -14.162106 -1.000000 -1.913417
v -14.162106 1.000000 -1.913417
v -4.529978 1.000000 -14.981306
v -4.529978 -1.000000 -14.981306
v -16.262972 1.000000 3.955670
v -16.262972 -1.000000 3.955670
v -16.262903 -1.000000 0.000000
v -16.262903 1.000000 0.000000
v -16.262972 -1.000000 -3.955670
v -16.262972 1.000000 -3.955670
v -19.278730 -1.000000 5.865440
v -19.278662 -1.000000 0.000000
v -19.278730 1.000000 5.865440
v -19.278662 1.000000 0.000000
v -19.278730 -1.000000 -5.865440
v -19.278730 1.000000 -5.865440
v -21.820101 -1.000000 5.865440
v -22.148043 1.000000 5.864769
v -22.148760 1.000000 0.000820
v -22.149475 -1.000000 -6.094242
v -22.149477 1.000000 -6.094242
v 0.000000 -1.000000 -18.719292
v 0.000000 1.000000 -17.768290
v -8.870512 1.000000 -16.143408
v -8.870512 -1.000000 -16.143408
v 0.000000 -1.000000 -20.719856
v 0.000000 1.000000 -20.719856
v -14.802589 1.000000 -19.427757
v -14.802589 -1.000000 -19.427757
v 0.000000 -1.000000 -22.670311
v -14.833915 1.000000 -22.670177
v -14.833915 -1.000000 -22.670177
v -22.150671 1.000000 -19.424538
v -22.150671 -1.000000 -19.424538
v -22.151020 1.000000 -22.668240
v -22.151020 -1.000000 -22.668240
v 0.000000 -1.000000 -15.303929
v -2.551422 1.000000 -13.734179
v -2.551422 -1.000000 -13.734179
v 0.000000 1.000000 -13.768775
v 0.000000 -1.000000 -14.294402
v 0.000000 -1.000000 -13.131972
v -1.253275 4.317430 -20.721867
v -2.144863 1.000000 -12.998193
v -1.913417 1.000000 -11.836627
v -1.913417 -1.000000 -11.836627
v -2.144863 -1.000000 -12.998193
v -1.253275 4.317271 -22.670887
v 0.000000 1.000000 -11.866877
v 0.000000 1.000000 -13.029306
v 0.000000 -1.000000 -26.475468
v -14.834025 -1.000000 -26.475334
v -22.151131 -1.000000 -26.473396
v -6.122140 4.317271 -22.670887
v -14.833915 8.001302 -22.670177
v -22.151020 8.000634 -22.668240
v -14.833915 4.308137 -22.670177
v -14.834025 8.001323 -26.475334
v -22.151131 8.000688 -26.473396
v -6.107237 1.000000 -22.670887
v -6.122140 8.001743 -22.670887
v -6.122159 8.001743 -26.476044
v -6.111550 1.000000 -17.757359
v -6.107208 1.000000 -20.720432
v -6.122159 4.317271 -26.476044
v 0.000000 4.317271 -26.476044
v 0.000000 4.317271 -22.670887
v 0.000000 4.317430 -20.721867
v -2.501061 1.000000 -17.768747
v -2.499117 1.000000 -20.720142
v -1.703529 4.317271 -26.476044
v -1.671202 4.317271 -22.670887
v -1.671202 4.317430 -20.721867
v -4.157318 1.000000 -17.757126
v -6.107208 2.518452 -20.720432
v -4.154086 1.000000 -20.720287
v -4.154775 2.519453 -20.720718
v -4.154775 2.519453 -22.672703
v -0.000124 3.997644 -30.859863
v -1.253411 3.997644 -30.859863
v 0.000000 8.000000 -26.476044
v -24.750341 1.000000 -20.717579
v -24.750341 -1.000000 -20.717579
v -24.750690 1.000000 -22.668034
v -24.750690 -1.000000 -22.668034
v -24.750801 1.000000 -26.473190
v -24.750801 -1.000000 -26.473190
v -24.750801 8.000688 -26.473190
v -24.750690 8.000688 -22.668034
v -22.146370 1.000000 30.032152
v -22.146370 -1.000000 30.032152
v -24.746040 1.000000 30.032358
v -24.746040 -1.000000 30.032358
v -22.148760 8.000634 0.000820
v -22.150671 8.000634 -20.717785
v -24.748430 -1.000000 0.000825
v -24.750341 8.000634 -20.717579
v -24.746040 8.000634 30.032354
v -22.146370 8.000634 30.032148
v -24.747713 -1.000000 5.864905
v -24.749147 -1.000000 -6.094106
v -24.747713 1.000000 5.864905
v -24.749147 1.000000 -6.094106
v -24.748430 1.000000 0.000825
v -24.748430 8.000634 0.000825
v -24.747713 8.000634 5.864903
v -24.749147 8.000634 -6.094106
v -22.148043 8.000634 5.864767
v -22.149477 8.000634 -6.094243
v 2.500360 2.520453 -20.721004
v 6.107237 2.520453 -22.670887
v 1.253286 4.317271 -26.476044
v 1.249559 1.000000 -20.720001
v 1.913417 -1.000000 4.619398
v 1.913417 1.000000 4.619398
v 3.535534 -1.000000 3.535534
v 3.535534 1.000000 3.535534
v 4.619398 -1.000000 1.913417
v 4.619398 1.000000 1.913417
v 5.000000 -1.000000 0.000000
v 5.000000 1.000000 0.000000
v 4.619398 -1.000000 -1.913417
v 4.619398 1.000000 -1.913417
v 3.535534 -1.000000 -3.535534
v 3.535534 1.000000 -3.535534
v 1.913417 -1.000000 -4.619398
v 1.913417 1.000000 -4.619398
v 1.250531 1.000000 -17.768518
v 1.913417 -1.000000 21.790749
v 1.913417 1.000000 21.790749
v 20.000023 1.000000 1.913417
v 20.000023 -1.000000 1.913417
v 19.999954 -1.000000 0.000000
v 19.999954 1.000000 0.000000
v 20.000023 -1.000000 -1.913417
v 20.000023 1.000000 -1.913417
v 4.529978 1.000000 -14.981306
v 4.529978 -1.000000 -14.981306
v 8.870511 1.000000 -16.143408
v 8.870511 -1.000000 -16.143408
v 14.802589 1.000000 -19.427757
v 14.802589 -1.000000 -19.427757
v 14.805388 1.000000 -22.670582
v 14.732521 -1.000000 -22.670574
v 27.988588 1.000000 -19.424538
v 27.988588 -1.000000 -19.424538
v 27.988937 1.000000 -22.668240
v 27.988937 -1.000000 -22.668240
v 2.551422 1.000000 -13.734179
v 2.551422 -1.000000 -13.734179
v 1.253275 4.317430 -20.721867
v 2.144863 1.000000 -12.998193
v 1.913417 1.000000 -11.836627
v 1.913417 -1.000000 -11.836627
v 2.144863 -1.000000 -12.998193
v 1.253275 4.317271 -22.670887
v 14.732630 -1.000000 -26.475731
v 27.989048 1.000000 -26.473396
v 27.989048 -1.000000 -26.473396
v 6.122140 4.328497 -22.670887
v 14.805566 8.001444 -22.670582
v 27.988937 8.000634 -22.668240
v 14.805566 4.308164 -22.670582
v 14.805676 8.001458 -26.475739
v 27.989048 8.000688 -26.473396
v 6.107237 1.000000 -22.670887
v 6.122140 8.001743 -22.670887
v 6.122159 8.001743 -26.476044
v 6.111550 1.000000 -17.757359
v 6.107208 1.000000 -20.720432
v 6.122159 4.317271 -26.476044
v 2.501061 1.000000 -17.768747
v 2.499117 1.000000 -20.720142
v 1.703529 4.317271 -26.476044
v 1.671202 4.317271 -22.670887
v 1.671202 4.317430 -20.721867
v 4.157318 1.000000 -17.757126
v 6.107208 2.518452 -20.720432
v 4.154086 1.000000 -20.720287
v 4.154775 2.519453 -20.720718
v 4.154775 2.519453 -22.672703
v -22.151255 -1.000267 -30.857216
v -14.834149 -1.000267 -30.859154
v -10.726180 -1.000000 0.000000
v -7.636542 -1.000000 0.000000
v -7.636542 -1.000000 -1.913417
v -10.726180 -1.000000 -1.913417
v -10.613375 -0.432889 -1.913417
v -7.749348 -0.432889 -1.913417
v -8.085345 0.069967 -1.913417
v -10.277377 0.069967 -1.913417
v -9.774521 0.405965 -1.913417
v -9.181361 0.523951 -1.913417
v -8.588202 0.405965 -1.913417
v -9.774521 0.405965 1.913417
v -9.181361 0.523951 1.913417
v -8.588202 0.405965 1.913417
v -8.085345 0.069967 1.913417
v -10.613375 -0.432889 1.913417
v -10.726180 -1.000000 1.913417
v -10.277377 0.069967 1.913417
v -7.636542 -1.000000 1.913417
v -7.749348 -0.432889 1.913417
v -1.913417 -1.000000 -7.243497
v -1.913417 -1.000000 -10.333135
v 0.000000 -1.000000 -7.243497
v 0.000000 -1.000000 -10.333135
v -1.913417 0.069966 -7.692300
v -1.913417 0.405964 -8.195156
v -1.913417 0.523951 -8.788316
v -1.913417 0.405964 -9.381475
v -1.913417 -0.432890 -7.356302
v -1.913417 -0.432890 -10.220329
v -1.913417 0.069966 -9.884332
v 1.913417 -1.000000 -7.243497
v 1.913417 -1.000000 -10.333135
v 1.913417 -0.432890 -7.356302
v 1.913417 -0.432890 -10.220329
v 1.913417 0.069966 -9.884332
v 1.913417 0.069966 -7.692300
v 1.913417 0.405964 -9.381475
v 1.913417 0.523951 -8.788316
v 1.913417 0.405964 -8.195156
v -1.913417 1.000000 -7.417961
v -1.913417 1.000000 -8.146704
v -1.913417 1.000000 -8.875446
v -1.913417 1.000000 -9.604188
v -1.913417 1.000000 -10.332932
v 0.000000 1.000000 -7.421522
v 0.000000 1.000000 -8.149768
v 0.000000 1.000000 -8.878014
v 0.000000 1.000000 -9.606259
v 0.000000 1.000000 -10.334504
v 1.913417 1.000000 -7.417961
v 1.913417 1.000000 -8.146704
v 1.913417 1.000000 -8.875446
v 1.913417 1.000000 -9.604188
v 1.913417 1.000000 -10.332932
v -1.913417 1.000000 -6.806029
v 0.000000 1.000000 -6.810538
v 1.913417 1.000000 -6.806029
v -1.913417 1.000000 -11.011726
v 0.000000 1.000000 -11.013426
v 1.913417 1.000000 -11.011726
v -1.913417 1.000000 -6.259371
v 0.000000 1.000000 -6.264727
v 1.913417 1.000000 -6.259371
v 0.000000 -1.000000 -5.935396
v 1.251443 2.520453 -20.720947
v 0.000000 3.751801 -20.721701
v -1.913417 1.000000 -11.541264
v 0.000000 1.000000 -11.543062
v 1.913417 1.000000 -11.541264
v -1.809395 3.751801 -20.721724
v 0.000000 -1.000000 -11.732553
v -1.249559 0.998010 -23.799589
v 1.252970 3.751801 -20.721714
v 1.809395 3.751801 -20.721724
v 0.000000 0.998010 -23.799444
v -1.251443 2.520453 -20.720947
v -1.252970 3.751801 -20.721714
v -6.358477 1.000000 0.000000
v -8.265692 1.000000 0.000000
v -10.172907 1.000000 0.000000
v -12.080121 1.000000 0.000000
v -6.353238 1.000000 -1.913417
v -8.261780 1.000000 -1.913417
v -10.170321 1.000000 -1.913417
v -12.078863 1.000000 -1.913417
v -6.353238 1.000000 1.913417
v -8.261780 1.000000 1.913417
v -10.170321 1.000000 1.913417
v -12.078863 1.000000 1.913417
v -8.742496 1.000000 0.000000
v -9.219299 1.000000 0.000000
v -9.696103 1.000000 0.000000
v -8.738915 1.000000 -1.913417
v -9.216051 1.000000 -1.913417
v -9.693186 1.000000 -1.913417
v -8.738915 1.000000 1.913417
v -9.216051 1.000000 1.913417
v -9.693186 1.000000 1.913417
v -11.126514 1.000000 0.000000
v -11.124592 1.000000 -1.913417
v -11.124592 1.000000 1.913417
v -7.312084 1.000000 0.000000
v -7.307509 1.000000 -1.913417
v -7.307509 1.000000 1.913417
v 0.000000 2.518463 -23.800465
v -1.251443 2.518463 -23.800535
v 1.249559 0.998010 -23.799589
v 0.000000 3.749811 -23.801289
v -1.252970 3.749811 -23.801302
v 1.251443 2.518463 -23.800535
v 1.252970 3.749811 -23.801302
v -6.098933 0.999733 -30.859863
v -1.716349 0.999733 -30.859573
v -1.249776 0.999733 -30.859432
v -0.000124 0.999733 -30.859287
v -0.000124 -1.000267 -30.859287
v -14.834149 0.999733 -30.859154
v -22.151255 0.999733 -30.857216
v -22.151255 8.000421 -30.857216
v -24.750925 8.000421 -30.857010
v -24.750925 0.999733 -30.857010
v -14.834149 8.001056 -30.859154
v -14.834149 3.995398 -30.859154
v -6.122283 8.001476 -30.859863
v -6.122283 3.997644 -30.859863
v -1.703653 3.997644 -30.859863
v -0.000124 7.999733 -30.859863
v -24.750925 -1.000267 -30.857010
v 1.253162 3.997644 -30.859863
v 14.732506 -1.000267 -30.859550
v 27.988924 -1.000267 -30.857216
v 14.792142 0.999733 -30.859558
v 6.098685 0.999733 -30.859863
v 1.249528 0.999733 -30.859432
v 1.716100 0.999733 -30.859573
v 27.988924 0.999733 -30.857216
v 27.988924 8.000421 -30.857216
v 14.805552 3.995425 -30.859558
v 14.805552 8.001191 -30.859558
v 6.122036 3.997644 -30.859863
v 6.122036 8.001476 -30.859863
v 1.703405 3.997644 -30.859863
v 1.253188 8.000090 -30.859863
v 1.253313 8.000357 -26.476044
v 1.703187 8.000217 -30.859863
v 1.703311 8.000484 -26.476044
v -1.253984 8.000090 -30.859863
v -1.253860 8.000357 -26.476044
v -1.703341 8.000217 -30.859863
v -1.703218 8.000484 -26.476044
v -6.122159 7.744354 -26.476044
v -14.833915 7.743796 -22.670177
v -6.122140 7.744354 -22.670887
v 6.122159 7.744354 -26.476044
v 14.805566 7.743931 -22.670582
v 6.122140 7.744354 -22.670887
v 0.000000 7.742723 -26.476044
v 1.253311 7.743056 -26.476044
v 1.703325 7.743176 -26.476044
v -1.253823 7.743056 -26.476044
v -1.703238 7.743176 -26.476044
v -1.253286 4.317271 -29.593868
v 0.000000 4.317271 -29.593868
v -1.703529 4.317271 -29.593868
v 1.253286 4.317271 -29.593868
v 1.703529 4.317271 -29.593868
v 0.000000 7.742723 -29.593868
v 1.253311 7.743056 -29.593868
v 1.703325 7.743176 -29.593868
v -1.253823 7.743056 -29.593868
v -1.703238 7.743176 -29.593868
v 0.000000 4.317271 -26.075079
v 0.000000 4.317271 -23.074434
v -1.253283 4.317271 -26.075079
v -1.253279 4.317271 -23.074434
v -14.833952 -1.000000 -23.072752
v -14.833988 -1.000000 -26.073397
v -22.151056 -1.000000 -23.068167
v -22.151093 -1.000000 -26.068811
v 0.000000 -1.000000 -23.073067
v 0.000000 -1.000000 -26.073711
v -22.151056 8.000652 -23.068167
v -22.151093 8.000669 -26.068811
v -14.833952 8.001308 -23.072752
v -14.833988 8.001316 -26.073397
v -6.122147 8.001743 -23.074430
v -6.122153 8.001743 -26.075075
v -1.692754 4.317271 -26.075079
v -1.681978 4.317271 -23.074434
v -6.122147 4.317271 -23.074430
v -6.122153 4.317271 -26.075075
v -24.750727 -1.000000 -23.067680
v -24.750763 -1.000000 -26.068325
v -24.750727 1.000000 -23.067680
v -24.750763 1.000000 -26.068325
v -24.750765 8.000688 -26.068329
v -24.750729 8.000688 -23.067684
v 1.253283 4.317271 -26.075079
v 1.253279 4.317271 -23.074434
v 14.732557 -1.000000 -23.073690
v 14.732594 -1.000000 -26.074335
v 27.988974 -1.000000 -23.068167
v 27.989010 -1.000000 -26.068811
v 27.988974 8.000652 -23.068167
v 27.989010 8.000669 -26.068811
v 14.805601 8.001449 -23.073708
v 14.805639 8.001453 -26.074352
v 6.122147 8.001743 -23.074430
v 6.122153 8.001743 -26.075075
v 1.692754 4.317271 -26.075079
v 1.681978 4.317271 -23.074434
v 6.122147 4.317271 -23.074430
v 6.122153 4.317271 -26.075075
v 6.122152 7.744354 -26.075079
v 6.122147 7.744354 -23.074434
v -6.122147 7.744354 -23.074430
v -6.122153 7.744354 -26.075075
v -8.553642 4.317271 -23.074425
v -8.553648 4.317271 -26.075069
v 8.553642 4.317271 -23.074425
v 8.553648 4.317271 -26.075069
v 8.553648 7.744355 -26.075073
v 8.553642 7.744355 -23.074429
v -8.553642 7.744354 -23.074425
v -8.553648 7.744354 -26.075069
v -24.748072 1.000000 1.404823
v -24.748072 -1.000000 1.404823
v -24.748789 1.000000 -1.518635
v -24.748789 -1.000000 -1.518635
v -22.149118 8.000634 -1.518669
v -24.748789 8.000634 -1.518635
v -22.148401 1.000000 1.404789
v -22.149118 1.000000 -1.518669
v -22.148401 8.000634 1.404788
v -24.748072 8.000634 1.404822
v -22.148760 3.996027 0.000820
v -22.148401 3.996027 1.404788
v -22.149118 3.996027 -1.518669
v -24.279333 1.000000 1.405312
v -24.279692 1.000000 0.001344
v -24.280050 1.000000 -1.518146
v -24.279692 3.996027 0.001344
v -24.279333 3.996027 1.405312
v -24.280050 3.996027 -1.518146
vn -1.0000 -0.0000 0.0003
vn -1.0000 -0.0000 0.0001
vn -0.0000 -1.0000 -0.0000
vn -0.5556 -0.0000 0.8315
vn -0.8315 -0.0000 0.5556
vn -0.0000 1.0000 -0.0001
vn -0.8315 -0.0000 -0.5556
vn -0.0000 1.0000 -0.0000
vn -0.5556 -0.0000 -0.8315
vn 0.6970 -0.0000 -0.7170
vn -0.0000 -0.0000 -1.0000
vn -0.0000 -0.0000 1.0000
vn -1.0000 -0.0000 -0.0000
vn 0.0002 -0.0000 1.0000
vn 0.5350 -0.0000 0.8448
vn 0.6970 -0.0000 0.7170
vn 0.0794 -0.0000 -0.9968
vn 0.5350 -0.0000 -0.8448
vn -1.0000 -0.0000 0.0002
vn -0.0001 0.0002 1.0000
vn -0.0000 -0.0002 -1.0000
vn -0.2586 -0.0000 0.9660
vn 0.0004 -0.0000 1.0000
vn -0.5332 -0.0000 0.8460
vn -0.9807 -0.0000 0.1954
vn -0.0000 0.0003 1.0000
vn -0.8753 -0.0000 0.4835
vn -0.0001 1.0000 -0.0000
vn 0.0001 1.0000 -0.0001
vn 0.0003 -0.0000 1.0000
vn -0.0000 -1.0000 0.0001
vn 0.0001 -0.0000 1.0000
vn 1.0000 -0.0000 -0.0000
vn -0.0001 0.0006 1.0000
vn -0.0000 0.0004 1.0000
vn 1.0000 0.0005 0.0011
vn -1.0000 -0.0000 -0.0015
vn -0.5864 0.8100 -0.0000
vn -0.0000 1.0000 0.0005
vn 0.0003 -0.0007 1.0000
vn 0.0002 0.0004 1.0000
vn -0.0002 0.8899 0.4561
vn -0.4844 -0.0000 0.8749
vn 0.0003 1.0000 -0.0001
vn -0.0001 1.0000 -0.0001
vn 0.9966 0.0817 0.0067
vn 1.0000 -0.0000 -0.0001
vn 1.0000 -0.0000 -0.0003
vn 0.5556 -0.0000 0.8315
vn 0.8315 -0.0000 0.5556
vn 0.8315 -0.0000 -0.5556
vn 0.5556 -0.0000 -0.8315
vn -0.0002 -0.0000 1.0000
vn -0.0003 -0.0000 -1.0000
vn 0.2586 -0.0000 0.9660
vn 0.5332 -0.0000 0.8460
vn 0.9807 -0.0000 0.1954
vn 0.8753 -0.0000 0.4835
vn -0.0003 1.0000 -0.0001
vn 0.0001 1.0000 -0.0000
vn -0.0013 0.9999 -0.0139
vn -1.0000 0.0005 0.0011
vn 1.0000 -0.0000 -0.0015
vn 0.5864 0.8100 -0.0000
vn -0.0003 -0.0007 1.0000
vn -0.0002 0.0004 1.0000
vn 0.0002 0.8899 0.4561
vn 0.4844 -0.0000 0.8749
vn -0.9808 -0.1951 -0.0000
vn -0.8315 -0.5556 -0.0000
vn -0.5556 -0.8315 -0.0000
vn -0.1951 -0.9808 -0.0000
vn 0.1951 -0.9808 -0.0000
vn 0.5556 -0.8315 -0.0000
vn 0.8315 -0.5556 -0.0000
vn 0.9808 -0.1951 -0.0000
vn -0.0000 -0.1951 -0.9808
vn -0.0000 -0.5556 -0.8315
vn -0.0000 -0.8315 -0.5556
vn -0.0000 -0.9808 -0.1951
vn -0.0000 -0.9808 0.1951
vn -0.0000 -0.8315 0.5556
vn -0.0000 -0.5556 0.8315
vn -0.0000 -0.1951 0.9808
vn -0.0000 -1.0000 0.0006
vn -0.0000 0.0006 1.0000
vn 1.0000 0.0012 -0.0000
vn 0.0001 0.0006 1.0000
vn -1.0000 0.0012 -0.0000
vn -0.0000 1.0000 -0.0006
vn -0.0001 -0.0000 -1.0000
vn 0.0001 -0.0002 -1.0000
vn 0.0002 -0.0001 -1.0000
vn -0.0000 -0.0001 -1.0000
vn 0.0002 -0.0000 -1.0000
vn -0.0001 -0.0002 -1.0000
vn -0.0002 -0.0001 -1.0000
vn -0.0003 -1.0000 -0.0000
vn -1.0000 -0.0001 -0.0000
vn 0.0003 -1.0000 -0.0000
vn 1.0000 -0.0001 -0.0000
vn 1.0000 -0.0000 0.0001
vn 1.0000 -0.0000 -0.0002
vn -0.0002 -0.0000 -1.0000
vt 0.062500 1.000000
vt 0.658156 0.471731
vt 0.062500 0.500000
vt 0.360328 0.485866
vt 0.528269 0.341844
vt 0.510000 0.250000
vt 0.437500 0.500000
vt 0.437500 1.000000
vt 0.375000 1.000000
vt 0.375000 0.500000
vt 0.312500 1.000000
vt 0.312500 0.500000
vt 0.000000 0.000000
vt 0.051019 0.120216
vt 0.187500 0.500000
vt 0.187500 1.000000
vt 0.125000 1.000000
vt 0.125000 0.500000
vt 0.158156 0.471731
vt 0.080294 0.419706
vt 0.028269 0.341844
vt 0.010000 0.250000
vt 0.028269 0.158156
vt 0.080294 0.080294
vt 0.158156 0.028269
vt 0.250000 0.010000
vt 0.250000 0.490000
vt 0.528269 0.158156
vt 0.213095 0.482659
vt 0.194643 0.478989
vt 0.176191 0.475318
vt 0.231548 0.486330
vt 0.658156 0.028269
vt 0.750000 0.010000
vt 0.500000 0.500000
vt 0.500000 1.000000
vt 0.036617 0.163478
vt 0.158156 0.471731
vt 0.019134 0.204078
vt 0.019134 0.295922
vt 0.015625 1.000000
vt 0.007812 1.000000
vt 0.000000 1.000000
vt 0.000000 0.500000
vt 0.031250 1.000000
vt 0.238519 0.487716
vt 0.750000 0.490000
vt 0.658156 0.471731
vt 0.658156 0.471731
vt 0.158156 0.471731
vt 0.250000 0.490000
vt 0.250000 0.490000
vt 0.750000 0.490000
vt 0.750000 0.490000
vt 0.062500 0.500000
vt 0.062500 1.000000
vt 0.750000 0.490000
vt 0.020536 0.040250
vt 0.066421 0.150404
vt 0.062500 0.500000
vt 0.062500 1.000000
vt 0.158156 0.471731
vt 0.250000 0.490000
vt 0.158156 0.471731
vt 0.158704 0.471840
vt 0.158156 0.471731
vt 0.158156 0.471731
vt 0.659252 0.471949
vt 0.204078 0.480866
vt 0.073234 0.326955
vt 0.146469 0.653910
vt 0.102039 0.240433
vt 0.196671 0.503114
vt 0.088859 0.826955
vt 0.192968 0.514238
vt 0.580294 0.419706
vt 0.580294 0.080294
vt 0.143430 0.301341
vt 0.164539 0.362933
vt 0.227039 0.485433
vt 0.215558 0.483149
vt 0.037840 0.080905
vt 0.062500 1.000000
vt 0.659252 0.471949
vt 0.659252 0.471949
vt 0.158704 0.471840
vt 0.158704 0.471840
vt 0.204078 0.480866
vt 0.196671 0.503114
vt 0.112456 0.260849
vt 0.037840 0.080905
vt 0.747255 0.767495
vt 0.747255 0.599052
vt 0.687500 0.599052
vt 0.687500 0.935938
vt 0.747255 0.935938
vt 0.625000 0.599052
vt 0.625000 0.935938
vt 0.562500 0.935938
vt 0.562500 0.599052
vt 0.500000 0.935938
vt 0.500000 0.599052
vt 0.437500 0.935938
vt 0.437500 0.599052
vt 0.375000 0.935938
vt 0.375000 0.599052
vt 0.312500 0.935938
vt 0.312500 0.599052
vt 0.252745 0.599052
vt 0.252745 0.767495
vt 0.252745 0.935938
vt 0.750000 0.803456
vt 0.750000 0.635013
vt 0.750000 0.971899
vt 0.687500 0.971899
vt 0.687500 0.635013
vt 0.625000 0.635013
vt 0.625000 0.971899
vt 0.562500 0.635013
vt 0.562500 0.971899
vt 0.500000 0.635013
vt 0.500000 0.971899
vt 0.437500 0.971899
vt 0.437500 0.635013
vt 0.375000 0.635013
vt 0.375000 0.971899
vt 0.312500 0.635013
vt 0.312500 0.803456
vt 0.312500 0.971899
vt 0.158156 0.471731
vt 0.250000 0.490000
vt 0.062500 0.851491
vt 0.062500 0.880988
vt 0.062500 0.851491
vt 0.062500 0.767491
vt 0.062500 0.851491
vt 0.062500 0.767491
vt 0.062500 0.641777
vt 0.062500 0.851491
vt 0.062500 0.767491
vt 0.062500 0.641777
vt 0.062500 0.767492
vt 0.062500 0.641778
vt 0.062500 0.641777
vt 0.010000 0.250000
vt 0.028269 0.158156
vt 0.028269 0.158156
vt 0.028269 0.341844
vt 0.312500 0.641778
vt 0.187500 0.641778
vt 0.187500 0.641778
vt 0.187500 0.767492
vt 0.187500 0.851491
vt 0.187500 0.880988
vt 0.187500 0.851491
vt 0.312500 0.851491
vt 0.312500 0.880988
vt 0.312500 0.767492
vt 0.312500 0.851491
vt 0.312500 0.767492
vt 0.312500 0.641778
vt 0.123214 0.241500
vt 0.007812 0.250000
vt 0.015625 0.500000
vt 0.062127 1.000000
vt 0.061754 0.500000
vt 0.062127 1.000000
vt 0.054133 0.157329
vt 0.056779 0.133787
vt 0.000502 0.016071
vt 0.039595 0.108185
vt 0.041778 0.098442
vt 0.001004 0.032143
vt 0.002009 0.064286
vt 0.200375 0.491990
vt 0.204078 0.480866
vt 0.200375 0.491990
vt 0.022215 0.206739
vt 0.044430 0.413478
s 0
f 444/1/1 138/1/1 130/2/1 445/2/1
f 446/1/2 137/1/2 135/3/2 447/4/2
f 220/5/3 18/5/3 16/6/3 219/6/3
f 33/6/3 35/5/3 221/5/3 218/6/3
f 10/7/4 11/8/4 13/9/4 12/10/4
f 12/10/5 13/9/5 15/11/5 14/12/5
f 101/13/6 82/14/6 77/14/6 102/13/6
f 18/15/7 19/16/7 21/17/7 20/18/7
f 23/19/8 21/20/8 19/21/8 17/22/8 15/23/8 13/24/8 11/25/8 9/26/8 3/27/8
f 20/18/9 21/17/9 23/1/9 22/3/9
f 36/16/10 35/15/10 43/15/10 44/16/10
f 42/22/8 44/21/8 50/21/8 48/22/8
f 33/6/3 32/28/3 40/28/3 41/6/3
f 34/22/8 36/21/8 44/21/8 42/22/8
f 103/29/8 108/30/8 97/31/8 58/19/8 37/19/8 25/27/8 57/27/8 26/32/8
f 299/22/8 303/21/8 36/21/8 34/22/8
f 220/15/11 300/16/11 19/16/11 18/15/11
f 10/33/3 8/34/3 27/34/3 29/33/3
f 236/12/12 14/12/12 15/11/12 304/11/12
f 9/26/8 11/25/8 30/25/8 28/26/8
f 219/6/3 16/6/3 14/28/3 236/28/3
f 32/28/3 33/6/3 218/6/3 234/28/3
f 11/8/13 10/7/13 29/7/13 30/8/13
f 307/23/8 299/22/8 34/22/8 31/23/8
f 29/7/14 27/35/14 28/36/14 30/8/14
f 40/12/15 39/11/15 47/11/15 45/12/15
f 391/13/8 393/37/8 82/14/8 101/13/8
f 35/5/3 33/6/3 41/6/3 43/5/3
f 31/23/8 34/22/8 42/22/8 39/23/8
f 32/12/16 31/11/16 39/11/16 40/12/16
f 49/5/3 46/6/3 1/6/3 54/5/3
f 50/16/17 49/15/17 54/15/17 55/16/17
f 41/6/3 40/28/3 45/28/3 46/6/3
f 44/16/18 43/15/18 49/15/18 50/16/18
f 43/5/3 41/6/3 46/6/3 49/5/3
f 39/23/8 42/22/8 48/22/8 47/23/8
f 448/38/8 449/19/8 139/19/8 128/38/8
f 446/1/19 138/1/19 139/1/19 449/1/19
f 47/23/8 48/22/8 53/22/8 450/39/8 52/23/8
f 46/6/3 45/28/3 51/28/3 1/6/3
f 48/22/8 50/21/8 55/21/8 451/40/8 53/22/8
f 45/12/20 47/11/20 52/11/20 51/12/20
f 331/41/21 332/42/21 333/43/21 334/44/21 217/3/21 335/1/21 330/45/21
f 26/32/8 57/27/8 61/27/8 7/46/8
f 38/3/22 37/1/22 58/1/22 59/3/22
f 24/47/3 38/48/3 59/48/3 56/47/3
f 129/19/8 90/19/8 123/19/8 131/19/8
f 60/47/3 56/47/3 59/48/3 63/48/3
f 395/2/3 397/2/3 87/48/3 86/48/3
f 60/47/3 63/48/3 66/2/3 64/47/3
f 63/3/23 62/1/23 67/1/23 68/3/23
f 136/1/2 126/1/2 132/1/2 140/1/2
f 66/2/3 63/48/3 68/48/3 70/48/3
f 62/19/8 65/19/8 69/19/8 67/19/8
f 71/47/3 73/49/3 38/48/3 24/47/3
f 72/19/8 74/27/8 25/27/8 37/19/8
f 73/3/24 72/1/24 37/1/24 38/3/24
f 79/50/8 83/51/8 84/52/8 78/19/8
f 76/53/3 80/2/3 81/48/3 75/54/3
f 80/55/25 79/56/25 78/1/25 81/3/25
f 73/49/3 71/47/3 75/54/3 81/48/3
f 282/47/3 238/2/3 240/47/3
f 239/2/3 80/2/3 76/53/3 289/57/3
f 284/58/26 102/13/26 77/14/26 295/59/26
f 72/1/27 73/3/27 81/3/27 78/1/27
f 74/27/8 72/19/8 78/19/8 84/52/8
f 239/60/13 285/61/13 79/56/13 80/55/13
f 285/62/8 286/63/8 83/51/8 79/50/8
f 399/47/3 395/2/3 86/48/3 85/47/3
f 401/19/28 403/64/28 92/19/28 93/19/28
f 198/65/29 199/19/29 355/19/29 357/65/29
f 91/66/30 370/19/30 89/67/30 90/19/30 69/19/30 65/19/30
f 193/48/31 191/68/31 348/68/31 349/48/31
f 370/19/32 371/69/32 95/69/32 89/67/32
f 403/64/8 405/69/8 96/69/8 92/19/8
f 94/69/32 5/69/32 88/69/32 91/66/32 65/19/32
f 62/19/8 58/19/8 97/31/8 98/69/8
f 62/19/8 98/69/8 94/69/8 65/19/8
f 122/19/6 93/19/6 337/19/6 338/19/6
f 407/70/8 408/71/8 88/69/8 106/72/8
f 435/73/33 409/74/33 99/45/33 369/75/33
f 20/76/3 22/48/3 2/47/3 8/34/3 10/33/3 12/77/3 14/28/3 16/6/3 18/5/3
f 82/14/6 106/72/6 107/72/6 77/14/6
f 393/37/8 407/70/8 106/72/8 82/14/8
f 202/69/6 198/65/6 357/65/6 359/69/6
f 294/78/34 4/79/34 104/80/34 7/46/34
f 108/30/8 103/29/8 104/80/8 110/81/8
f 191/68/31 85/47/31 334/47/31 348/68/31
f 103/29/8 26/32/8 7/46/8 104/80/8
f 94/69/13 98/69/13 109/69/13 5/69/13
f 110/81/35 104/80/35 4/80/35 111/81/35
f 110/81/36 111/81/36 108/30/36
f 98/69/37 97/31/37 109/69/37
f 111/13/38 107/13/38 106/13/38 112/13/38
f 109/69/39 111/81/39 112/81/39 5/69/39
f 5/69/40 112/81/40 106/13/40 88/69/40
f 4/80/41 288/82/41 107/13/41 111/81/41
f 108/30/42 111/81/42 109/69/42 97/31/42
f 59/3/43 58/1/43 62/1/43 63/3/43
f 368/13/44 367/13/44 342/13/44 96/13/44
f 411/3/2 413/1/2 120/1/2 121/3/2
f 117/3/19 116/1/19 118/1/19 119/3/19
f 412/1/2 118/1/2 123/1/2 415/1/2
f 396/2/3 70/48/3 119/48/3 410/2/3
f 134/2/3 51/2/3 125/48/3 127/48/3
f 401/19/8 93/19/8 122/19/8 414/19/8
f 93/19/45 92/19/45 340/19/45 337/19/45
f 70/48/3 68/48/3 117/48/3 119/48/3
f 125/3/32 124/1/32 126/1/32 127/3/32
f 136/1/2 134/3/2 127/3/2 126/1/2
f 118/1/19 116/1/19 131/1/19 123/1/19
f 51/55/46 52/83/46 124/1/46 125/3/46
f 142/64/8 140/19/8 132/19/8 133/19/8
f 67/19/47 69/19/47 90/19/47 129/19/47
f 126/1/32 124/1/32 133/1/32 132/1/32
f 55/1/47 67/1/47 129/1/47 143/1/47
f 124/1/47 52/83/47 142/1/47 133/1/47
f 451/1/47 55/1/47 143/1/47 448/1/47 456/1/47
f 129/19/8 131/19/8 141/19/8 143/67/8
f 452/38/8 453/19/8 140/19/8 142/64/8
f 68/3/47 67/1/47 55/1/47 54/3/47
f 135/2/3 54/2/3 1/2/3 130/2/3 447/2/3
f 116/1/2 117/3/2 135/3/2 137/1/2
f 455/1/48 454/1/48 128/1/48 452/1/48
f 117/48/3 68/48/3 54/2/3 135/2/3
f 130/2/3 1/2/3 51/2/3 134/2/3 445/2/3
f 116/1/2 137/1/2 141/1/2 131/1/2
f 444/1/2 136/1/2 140/1/2 453/1/2
f 156/5/3 169/5/3 167/6/3 154/6/3
f 148/7/49 150/10/49 151/9/49 149/8/49
f 150/10/50 152/12/50 153/11/50 151/9/50
f 101/13/6 102/13/6 185/14/6 190/14/6
f 156/15/51 158/18/51 159/17/51 157/16/51
f 161/19/8 3/27/8 9/26/8 149/25/8 151/24/8 153/23/8 155/22/8 157/21/8 159/20/8
f 158/18/52 160/3/52 161/1/52 159/17/52
f 57/27/8 25/27/8 171/19/8 173/19/8 203/31/8 211/30/8 206/29/8 162/32/8
f 155/22/8 168/22/8 170/21/8 157/21/8
f 157/16/11 170/16/11 169/15/11 156/15/11
f 148/33/3 163/33/3 27/34/3 8/34/3
f 152/12/12 166/12/12 165/11/12 153/11/12
f 9/26/8 28/26/8 164/25/8 149/25/8
f 154/6/3 167/6/3 166/28/3 152/28/3
f 149/8/33 164/8/33 163/7/33 148/7/33
f 153/23/8 165/23/8 168/22/8 155/22/8
f 163/7/53 164/8/53 28/36/53 27/35/53
f 391/13/8 101/13/8 190/14/8 417/37/8
f 169/15/33 170/16/33 168/22/33 165/23/33 166/12/33 167/6/33
f 335/1/54 217/3/54 216/3/54 336/1/54
f 162/32/8 147/46/8 61/27/8 57/27/8
f 172/3/55 174/3/55 173/1/55 171/1/55
f 24/47/3 56/47/3 174/48/3 172/48/3
f 174/48/3 56/47/3 60/47/3 176/48/3
f 419/84/3 191/68/3 193/48/3 421/2/3
f 60/47/3 64/47/3 178/85/3 176/48/3
f 176/3/53 180/3/53 179/1/53 175/1/53
f 178/85/3 182/48/3 180/48/3 176/48/3
f 175/19/8 179/19/8 181/19/8 177/86/8
f 71/47/3 24/47/3 172/48/3 184/49/3
f 183/19/8 171/19/8 25/27/8 74/27/8
f 184/3/56 172/3/56 171/1/56 183/1/56
f 187/50/8 186/19/8 84/52/8 83/51/8
f 76/53/3 75/54/3 189/48/3 188/2/3
f 188/55/57 189/3/57 186/1/57 187/56/57
f 184/49/3 189/48/3 75/54/3 71/47/3
f 249/2/3 282/47/3 240/47/3
f 289/57/3 76/53/3 188/2/3 250/2/3
f 284/58/26 291/59/26 185/14/26 102/13/26
f 183/1/58 186/1/58 189/3/58 184/3/58
f 74/27/8 84/52/8 186/19/8 183/19/8
f 249/3/33 281/1/33 161/1/33 160/3/33
f 287/62/8 187/50/8 83/51/8 286/63/8
f 362/13/59 361/13/59 345/13/59 115/13/59
f 199/13/33 192/13/33 354/13/33 355/13/33
f 399/47/3 85/47/3 191/68/3 419/84/3
f 92/19/6 96/69/6 342/69/6 340/19/6
f 423/19/60 199/19/60 198/65/60 425/65/60
f 192/13/33 193/13/33 349/13/33 354/13/33
f 196/19/53 195/87/53 373/87/53 197/87/53 177/86/53 181/19/53
f 120/1/13 122/1/13 338/1/13 339/1/13
f 373/87/12 195/87/12 201/69/12 374/88/12
f 425/65/8 198/65/8 202/69/8 427/69/8
f 197/87/12 194/69/12 145/69/12 200/69/12 177/86/12
f 175/19/8 204/69/8 203/31/8 173/19/8
f 175/19/8 177/86/8 200/69/8 204/69/8
f 121/3/13 120/1/13 339/1/13 346/3/13
f 429/70/61 209/72/61 194/69/61 430/71/61
f 432/89/13 372/75/13 205/45/13 431/74/13
f 154/6/3 152/28/3 150/77/3 148/33/3 8/34/3 2/47/3 160/48/3 158/76/3 156/5/3
f 190/14/6 185/14/6 210/72/6 209/72/6
f 417/37/8 190/14/8 209/72/8 429/70/8
f 86/48/31 87/48/31 216/48/31 217/48/31
f 292/90/26 210/72/26 185/14/26 291/59/26
f 211/30/8 213/81/8 207/80/8 206/29/8
f 87/48/31 121/48/31 346/48/31 216/48/31
f 206/29/8 207/80/8 147/46/8 162/32/8
f 200/69/33 145/69/33 212/69/33 204/69/33
f 213/81/35 214/81/35 144/80/35 207/80/35
f 213/81/62 211/30/62 214/81/62
f 204/69/63 212/69/63 203/31/63
f 214/13/64 215/13/64 209/13/64 210/13/64
f 212/69/39 145/69/39 215/81/39 214/81/39
f 145/69/65 194/69/65 209/13/65 215/81/65
f 144/80/66 214/81/66 210/13/66 292/91/66
f 211/30/67 203/31/67 212/69/67 214/81/67
f 174/3/68 176/3/68 175/1/68 173/1/68
f 85/47/31 86/48/31 217/48/31 334/47/31
f 219/92/69 236/93/69 237/94/69 223/95/69 220/96/69
f 232/97/70 224/98/70 223/95/70 237/94/70
f 228/99/71 224/98/71 232/97/71 231/100/71
f 227/101/72 228/99/72 231/100/72 230/102/72
f 226/103/73 227/101/73 230/102/73 229/104/73
f 225/105/74 226/103/74 229/104/74 235/106/74
f 222/107/75 225/105/75 235/106/75 233/108/75
f 234/109/76 218/110/76 221/111/76 222/107/76 233/108/76
f 240/112/77 238/113/77 246/113/77 251/114/77 249/114/77
f 251/115/78 246/116/78 242/116/78 254/115/78
f 243/117/79 257/118/79 254/118/79 242/117/79
f 244/119/80 256/120/80 257/120/80 243/119/80
f 245/121/81 255/122/81 256/122/81 244/121/81
f 255/123/82 245/124/82 248/124/82 253/123/82
f 248/125/83 247/125/83 252/126/83 253/126/83
f 239/127/84 241/128/84 250/129/84 252/129/84 247/127/84
f 275/19/8 268/19/8 263/27/8 274/27/8
f 268/19/8 269/130/8 264/27/8 263/27/8
f 269/130/8 270/130/8 265/27/8 264/27/8
f 270/130/8 271/62/8 266/131/8 265/27/8
f 271/62/8 272/62/8 267/51/8 266/131/8
f 273/19/8 274/27/8 263/27/8 258/19/8
f 258/19/8 263/27/8 264/27/8 259/130/8
f 259/130/8 264/27/8 265/27/8 260/130/8
f 260/130/8 265/27/8 266/131/8 261/62/8
f 261/62/8 266/131/8 267/51/8 262/62/8
f 255/132/33 271/56/33 270/1/33 256/133/33
f 243/134/13 259/1/13 260/1/13 244/133/13
f 242/135/13 258/1/13 259/1/13 243/134/13
f 244/133/13 260/1/13 261/56/13 245/136/13
f 245/136/13 261/56/13 262/56/13 248/137/13
f 246/138/13 273/1/13 258/1/13 242/135/13
f 256/133/33 270/1/33 269/1/33 257/139/33
f 253/140/33 272/56/33 271/56/33 255/132/33
f 252/141/33 278/61/33 272/56/33 253/140/33
f 257/139/33 269/1/33 268/1/33 254/142/33
f 279/19/8 280/27/8 274/27/8 273/19/8
f 281/19/8 275/19/8 274/27/8 280/27/8
f 272/62/8 278/62/8 277/63/8 267/51/8
f 262/62/8 267/51/8 277/63/8 276/62/8
f 250/55/33 188/55/33 187/56/33 287/61/33
f 254/142/33 268/1/33 275/1/33 251/143/33
f 161/19/8 281/19/8 280/27/8 3/27/8
f 23/19/8 3/27/8 280/27/8 279/19/8
f 160/48/3 2/47/3 282/47/3 249/2/3
f 2/47/3 22/48/3 238/2/3 282/47/3
f 284/58/85 295/59/85 327/59/85 326/58/85
f 144/79/86 292/90/86 291/59/86 283/78/86
f 241/57/3 289/57/3 250/2/3
f 239/2/3 289/57/3 241/57/3
f 295/59/87 294/78/87 324/78/87 327/59/87
f 295/59/86 288/90/86 4/79/86 294/78/86
f 22/3/13 23/1/13 279/1/13 238/3/13
f 77/14/26 107/72/26 288/90/26 295/59/26
f 248/137/13 262/56/13 276/61/13 247/144/13
f 238/3/13 279/1/13 273/1/13 246/138/13
f 276/62/8 277/63/8 286/63/8 285/62/8
f 278/62/8 287/62/8 286/63/8 277/63/8
f 207/80/88 144/79/88 283/78/88 147/46/88
f 147/46/89 283/78/89 328/78/89 325/46/89
f 251/143/33 275/1/33 281/1/33 249/3/33
f 252/141/33 250/55/33 287/61/33 278/61/33
f 247/144/13 276/61/13 285/61/13 239/60/13
f 283/78/89 291/59/89 329/59/89 328/78/89
f 15/23/8 17/22/8 296/145/8 304/146/8
f 322/146/8 320/145/8 297/145/8 305/146/8
f 316/147/8 310/22/8 298/22/8 306/147/8
f 319/23/8 317/22/8 299/22/8 307/23/8
f 17/22/8 19/21/8 300/21/8 296/145/8
f 320/145/8 321/21/8 301/21/8 297/145/8
f 310/22/8 313/148/8 302/148/8 298/22/8
f 317/22/8 318/21/8 303/21/8 299/22/8
f 234/12/12 307/11/12 31/11/12 32/12/12
f 233/149/12 319/11/12 307/11/12 234/12/12
f 223/150/11 321/16/11 300/16/11 220/15/11
f 35/15/11 36/16/11 303/16/11 221/15/11
f 222/151/11 318/16/11 302/16/11 225/152/11
f 228/153/11 311/16/11 301/16/11 224/152/11
f 297/145/8 301/21/8 311/21/8 308/145/8
f 308/145/8 311/21/8 312/148/8 309/22/8
f 309/22/8 312/148/8 313/148/8 310/22/8
f 305/146/8 297/145/8 308/145/8 314/146/8
f 314/146/8 308/145/8 309/22/8 315/147/8
f 315/147/8 309/22/8 310/22/8 316/147/8
f 227/154/11 312/16/11 311/16/11 228/153/11
f 226/155/11 313/16/11 312/16/11 227/154/11
f 225/152/11 302/16/11 313/16/11 226/155/11
f 298/22/8 302/148/8 318/21/8 317/22/8
f 306/147/8 298/22/8 317/22/8 319/23/8
f 221/15/11 303/16/11 318/16/11 222/151/11
f 296/145/8 300/21/8 321/21/8 320/145/8
f 304/146/8 296/145/8 320/145/8 322/146/8
f 224/152/11 301/16/11 321/16/11 223/150/11
f 231/156/12 314/11/12 315/11/12 230/157/12
f 232/158/12 305/11/12 314/11/12 231/156/12
f 230/157/12 315/11/12 316/11/12 229/159/12
f 229/159/12 316/11/12 306/11/12 235/160/12
f 237/161/12 236/12/12 304/11/12 322/11/12
f 232/158/12 237/161/12 322/11/12 305/11/12
f 235/160/12 306/11/12 319/11/12 233/149/12
f 323/162/86 328/78/86 329/59/86 326/58/86
f 323/162/86 326/58/86 327/59/86 324/78/86
f 293/27/88 325/46/88 328/78/88 323/162/88
f 293/27/34 323/162/34 324/78/34 290/46/34
f 61/27/90 147/46/90 325/46/90 293/27/90
f 291/59/85 284/58/85 326/58/85 329/59/85
f 7/46/90 61/27/90 293/27/90 290/46/90
f 294/78/87 7/46/87 290/46/87 324/78/87
f 337/1/91 336/1/91 339/1/91 338/1/91
f 341/1/54 335/1/54 336/1/54 337/1/54 340/1/54
f 343/45/91 341/1/91 340/1/91 342/45/91
f 330/45/91 335/1/91 341/1/91 343/45/91
f 332/42/92 114/163/92 113/13/92 333/43/92
f 330/45/11 343/45/11 344/164/11 331/41/11
f 331/41/93 344/164/93 114/163/93 332/42/93
f 367/13/11 344/13/11 343/13/11 342/13/11
f 336/1/91 216/3/91 346/3/91 339/1/91
f 350/165/94 348/166/94 334/44/94 333/43/94 352/42/94 353/41/94 351/45/94
f 350/165/95 354/1/95 349/3/95 348/166/95
f 356/167/95 357/165/95 355/1/95 354/1/95 350/165/95
f 358/45/11 359/45/11 357/165/11 356/167/11
f 351/45/11 358/45/11 356/167/11 350/165/11
f 352/42/96 333/43/96 113/13/96 347/163/96
f 351/45/11 353/41/11 360/164/11 358/45/11
f 353/41/97 352/42/97 347/163/97 360/164/97
f 361/13/11 347/13/11 113/13/11 345/13/11
f 377/168/12 372/75/12 202/69/12 364/169/12
f 378/170/12 375/13/12 115/13/12 366/13/12
f 364/13/59 363/13/59 361/13/59 362/13/59
f 360/13/11 347/13/11 361/13/11 363/13/11
f 375/13/12 376/171/12 362/172/12 115/13/12
f 202/13/59 359/13/59 363/13/59 364/13/59
f 358/13/11 360/13/11 363/13/11 359/13/11
f 376/171/12 377/168/12 364/169/12 362/172/12
f 115/13/44 345/13/44 365/13/44 366/13/44
f 345/13/11 113/13/11 114/13/11 365/13/11
f 379/173/12 378/170/12 366/13/12 368/13/12
f 366/13/44 365/13/44 367/13/44 368/13/44
f 365/13/11 114/13/11 344/13/11 367/13/11
f 369/174/12 379/173/12 368/13/12 96/13/12
f 99/45/12 105/164/12 379/173/12 369/174/12
f 146/163/8 208/164/8 384/164/8 383/163/8
f 375/13/98 378/170/98 388/170/98 385/13/98
f 208/164/99 377/168/99 387/168/99 384/164/99
f 100/13/8 146/163/8 383/163/8 381/13/8
f 208/164/12 205/45/12 372/75/12 377/168/12
f 427/69/13 202/69/13 372/75/13 432/89/13
f 197/87/12 373/87/12 374/88/12 194/69/12
f 405/69/33 435/73/33 369/75/33 96/69/33
f 91/66/32 88/69/32 371/69/32 370/19/32
f 382/164/12 380/163/12 388/170/12 389/173/12
f 383/163/12 384/164/12 387/168/12 386/171/12
f 381/13/12 383/163/12 386/171/12 385/13/12
f 380/163/12 381/13/12 385/13/12 388/170/12
f 378/170/98 379/173/98 389/173/98 388/170/98
f 105/164/8 6/163/8 380/163/8 382/164/8
f 377/168/100 376/171/100 386/171/100 387/168/100
f 379/173/101 105/164/101 382/164/101 389/173/101
f 6/163/8 100/13/8 381/13/8 380/163/8
f 376/171/100 375/13/100 385/13/100 386/171/100
f 95/69/33 371/69/33 434/175/33 404/176/33
f 404/176/33 434/175/33 435/73/33 405/69/33
f 201/69/13 426/176/13 433/177/13 374/88/13
f 426/176/13 427/69/13 432/89/13 433/177/13
f 146/163/8 416/178/8 428/179/8 208/164/8
f 416/178/8 417/37/8 429/70/8 428/179/8
f 374/88/13 433/177/13 430/71/13 194/69/13
f 434/175/11 408/71/11 436/71/11 442/175/11
f 208/164/8 428/179/8 431/74/8 205/45/8
f 428/179/8 429/70/8 430/71/8 431/74/8
f 195/87/8 424/65/8 426/176/8 201/69/8
f 424/65/8 425/65/8 427/69/8 426/176/8
f 196/19/60 422/19/60 424/65/60 195/87/60
f 422/19/60 423/19/60 425/65/60 424/65/60
f 64/47/3 398/47/3 418/85/3 178/85/3
f 398/47/3 399/47/3 419/84/3 418/85/3
f 178/85/3 418/85/3 420/2/3 182/48/3
f 418/85/3 419/84/3 421/2/3 420/2/3
f 100/13/8 390/13/8 416/178/8 146/163/8
f 390/13/8 391/13/8 417/37/8 416/178/8
f 90/19/8 400/19/8 415/19/8 123/19/8
f 400/19/8 401/19/8 414/19/8 415/19/8
f 87/48/3 397/2/3 411/2/3 121/48/3
f 397/2/3 396/2/3 410/2/3 411/2/3
f 120/1/2 413/1/2 414/1/2 122/1/2
f 413/1/13 412/1/13 415/1/13 414/1/13
f 119/3/2 118/1/2 412/1/2 410/3/2
f 410/3/13 412/1/13 413/1/13 411/3/13
f 6/163/8 105/164/8 406/179/8 392/178/8
f 392/178/8 406/179/8 407/70/8 393/37/8
f 371/69/33 88/69/33 408/71/33 434/175/33
f 435/73/3 434/175/3 442/175/3 443/73/3
f 105/164/8 99/45/8 409/74/8 406/179/8
f 406/179/8 409/74/8 408/71/8 407/70/8
f 89/67/28 95/69/28 404/176/28 402/67/28
f 402/67/8 404/176/8 405/69/8 403/64/8
f 90/19/28 89/67/28 402/67/28 400/19/28
f 400/19/28 402/67/28 403/64/28 401/19/28
f 64/47/3 66/2/3 394/2/3 398/47/3
f 398/47/3 394/2/3 395/2/3 399/47/3
f 66/2/3 70/48/3 396/2/3 394/2/3
f 394/2/3 396/2/3 397/2/3 395/2/3
f 100/13/8 6/163/8 392/178/8 390/13/8
f 390/13/8 392/178/8 393/37/8 391/13/8
f 441/177/13 440/89/13 439/74/13 438/71/13
f 442/175/33 436/71/33 437/74/33 443/73/33
f 433/177/3 432/89/3 440/89/3 441/177/3
f 430/71/11 433/177/11 441/177/11 438/71/11
f 408/71/8 409/74/8 437/74/8 436/71/8
f 431/74/8 430/71/8 438/71/8 439/74/8
f 409/74/12 435/73/12 443/73/12 437/74/12
f 432/89/12 431/74/12 439/74/12 440/89/12
f 199/13/33 196/19/33 181/19/33 192/13/33
f 180/3/102 193/13/102 192/13/102 181/19/102 179/19/102
f 138/1/1 444/1/1 453/1/1 139/1/1
f 52/83/47 450/1/47 455/1/47 452/1/47 142/1/47
f 128/38/8 139/19/8 453/19/8 452/38/8
f 454/1/103 456/1/103 448/1/103 128/1/103
f 137/1/2 446/1/2 449/1/2 141/1/2
f 143/67/8 141/19/8 449/19/8 448/38/8
f 138/1/19 446/1/19 447/4/19 130/2/19
f 136/1/2 444/1/2 445/2/2 134/2/2
f 451/1/14 456/1/14 462/1/14 459/1/14
f 454/1/3 455/1/3 461/1/3 460/1/3
f 458/1/103 459/1/103 462/1/103 460/1/103
f 457/1/48 458/1/48 460/1/48 461/1/48
f 450/39/8 53/22/8 458/22/8 457/39/8
f 53/22/8 451/40/8 459/40/8 458/22/8
f 456/1/3 454/1/3 460/1/3 462/1/3
f 455/1/104 450/1/104 457/1/104 461/1/104
