# Blender 4.5.2 LTS
# www.blender.org
mtllib blockout 002.mtl
o Cylinder
v -27.822704 -1.000000 -0.114401
v 0.000000 -1.000000 -5.000000
v 0.000000 1.000000 -5.000000
v -2.500360 2.520453 -24.245487
v -5.469368 2.520453 -26.195368
v -1.253286 3.997911 -30.000525
v -1.249559 1.000000 -24.244482
v 0.000000 -1.000000 5.000000
v 0.000000 1.000000 5.000000
v -1.913417 -1.000000 4.619398
v -1.913417 1.000000 4.619398
v -3.535534 -1.000000 3.535534
v -3.535534 1.000000 3.535534
v -4.619398 -1.000000 1.913417
v -4.619398 1.000000 1.913417
v -5.000000 -1.000000 0.000000
v -5.000000 1.000000 0.000000
v -4.619398 -1.000000 -1.913417
v -4.619398 1.000000 -1.913417
v -3.535534 -1.000000 -3.535534
v -3.535534 1.000000 -3.535534
v -1.913417 -1.000000 -4.619398
v -1.913417 1.000000 -4.619398
v 0.000000 -1.000000 -19.999235
v 0.000000 1.000000 -19.999235
v -1.250531 1.000000 -22.244003
v -1.249652 1.000000 -30.000093
v 0.000000 -1.000000 21.790445
v 0.000000 1.000000 21.790445
v -1.913417 -1.000000 21.790749
v -1.913417 1.000000 21.790749
v -20.000023 1.000000 1.913417
v -20.000023 -1.000000 1.913417
v -19.999954 -1.000000 0.000000
v -19.999954 1.000000 0.000000
v -20.000023 -1.000000 -1.913417
v -20.000023 1.000000 -1.913417
v -4.529978 1.000000 -20.353352
v -4.529978 -1.000000 -20.353352
v -22.100889 1.000000 3.955670
v -22.100889 -1.000000 3.955670
v -22.100821 -1.000000 0.000000
v -22.100821 1.000000 0.000000
v -22.100889 -1.000000 -3.955670
v -22.100889 1.000000 -3.955670
v -25.116648 -1.000000 5.865440
v -25.116579 -1.000000 0.000000
v -25.116648 1.000000 5.865440
v -25.116579 1.000000 0.000000
v -25.116648 -1.000000 -5.865440
v -25.116648 1.000000 -5.865440
v -27.658018 -1.000000 5.865440
v -27.985960 1.000000 5.864769
v -27.986677 1.000000 -0.114737
v -27.987392 -1.000000 -6.094242
v -27.987394 1.000000 -6.094242
v 0.000000 -1.000000 -22.243773
v 0.000000 1.000000 -22.243773
v -6.812647 1.000000 -21.515453
v -6.812647 -1.000000 -21.515453
v 0.000000 -1.000000 -24.244339
v 0.000000 1.000000 -24.244339
v -9.988588 1.000000 -24.245487
v -9.988588 -1.000000 -24.245487
v 0.000000 -1.000000 -26.194794
v -9.988937 1.000000 -26.195942
v -9.988937 -1.000000 -26.195942
v -27.988588 1.000000 -24.242266
v -27.988588 -1.000000 -24.242266
v -27.988937 1.000000 -26.192720
v -27.988937 -1.000000 -26.192720
v 0.000000 -1.000000 -18.828411
v -2.551422 1.000000 -18.821966
v -2.551422 -1.000000 -18.821966
v 0.000000 1.000000 -18.828411
v 0.000000 -1.000000 -17.818884
v 0.000000 -1.000000 -16.656454
v -1.253275 3.998071 -24.246349
v -2.144863 1.000000 -17.815922
v -1.913417 1.000000 -16.654356
v -1.913417 -1.000000 -16.654356
v -2.144863 -1.000000 -17.815922
v -1.253275 3.997911 -26.195368
v 0.000000 1.000000 -16.656454
v 0.000000 1.000000 -17.818884
v 0.000000 -1.000000 -29.999950
v 0.000000 1.000000 -29.999950
v -9.989048 1.000000 -30.001099
v -9.989048 -1.000000 -30.001099
v -27.989048 1.000000 -29.997877
v -27.989048 -1.000000 -29.997877
v -4.998260 3.997911 -26.195368
v -9.988937 8.001743 -26.195942
v -27.988937 8.000634 -26.192720
v -9.988937 3.995665 -26.195942
v -9.989048 8.001743 -30.001099
v -27.989048 8.000688 -29.997877
v -5.469368 1.000000 -26.195368
v -4.998276 1.000000 -30.000525
v -4.998260 8.001743 -26.195368
v -4.998276 8.001743 -30.000525
v -5.473231 1.000000 -22.790449
v -5.469343 1.000000 -24.244913
v -9.989048 3.995665 -30.001099
v -4.998276 3.997911 -30.000525
v 0.000000 3.997911 -30.000525
v 0.000000 3.997911 -26.195368
v 0.000000 3.998071 -24.246349
v -2.499193 1.000000 -30.000237
v -2.501061 1.000000 -22.244232
v -2.499117 1.000000 -24.244625
v -2.501616 3.997911 -30.000525
v -1.671202 3.997911 -26.195368
v -1.671202 3.998071 -24.246349
v -3.751592 1.000000 -22.790218
v -5.469343 2.518452 -24.244913
v -3.748676 1.000000 -24.244770
v -3.749297 2.519453 -24.245201
v -3.749297 2.519453 -26.197186
v -8.730055 1.000000 -22.739283
v -8.730055 -1.000000 -22.739283
v 0.000000 8.000000 -30.000525
v -30.588259 1.000000 -24.242060
v -30.588259 -1.000000 -24.242060
v -30.588608 1.000000 -26.192514
v -30.588608 -1.000000 -26.192514
v -30.588718 1.000000 -29.997671
v -30.588718 -1.000000 -29.997671
v -30.588718 8.000688 -29.997671
v -30.588608 8.000688 -26.192514
v -27.984287 1.000000 30.032152
v -27.984287 -1.000000 30.032152
v -30.583958 1.000000 30.032358
v -30.583958 -1.000000 30.032358
v -27.986677 8.000634 -0.114738
v -27.988588 8.000634 -24.242266
v -30.586348 -1.000000 -0.114601
v -30.588259 8.000634 -24.242060
v -30.583958 8.000634 30.032354
v -27.984287 8.000634 30.032148
v -30.585630 -1.000000 5.864905
v -30.587065 -1.000000 -6.094106
v -30.585630 1.000000 5.864905
v -30.587065 1.000000 -6.094106
v -30.586348 1.000000 -0.114601
v -30.586348 8.000634 -0.114602
v -30.585630 8.000634 5.864903
v -30.587065 8.000634 -6.094106
v -27.985960 8.000634 5.864767
v -27.987394 8.000634 -6.094243
v 27.822704 -1.000000 -0.114401
v 2.500360 2.520453 -24.245487
v 5.469368 2.520453 -26.195368
v 1.253286 3.997911 -30.000525
v 1.249559 1.000000 -24.244482
v 1.913417 -1.000000 4.619398
v 1.913417 1.000000 4.619398
v 3.535534 -1.000000 3.535534
v 3.535534 1.000000 3.535534
v 4.619398 -1.000000 1.913417
v 4.619398 1.000000 1.913417
v 5.000000 -1.000000 0.000000
v 5.000000 1.000000 0.000000
v 4.619398 -1.000000 -1.913417
v 4.619398 1.000000 -1.913417
v 3.535534 -1.000000 -3.535534
v 3.535534 1.000000 -3.535534
v 1.913417 -1.000000 -4.619398
v 1.913417 1.000000 -4.619398
v 1.250531 1.000000 -22.244003
v 1.249652 1.000000 -30.000093
v 1.913417 -1.000000 21.790749
v 1.913417 1.000000 21.790749
v 20.000023 1.000000 1.913417
v 20.000023 -1.000000 1.913417
v 19.999954 -1.000000 0.000000
v 19.999954 1.000000 0.000000
v 20.000023 -1.000000 -1.913417
v 20.000023 1.000000 -1.913417
v 4.529978 1.000000 -20.353352
v 4.529978 -1.000000 -20.353352
v 22.100889 1.000000 3.955670
v 22.100889 -1.000000 3.955670
v 22.100821 -1.000000 0.000000
v 22.100821 1.000000 0.000000
v 22.100889 -1.000000 -3.955670
v 22.100889 1.000000 -3.955670
v 25.116648 -1.000000 5.865440
v 25.116579 -1.000000 0.000000
v 25.116648 1.000000 5.865440
v 25.116579 1.000000 0.000000
v 25.116648 -1.000000 -5.865440
v 25.116648 1.000000 -5.865440
v 27.658018 -1.000000 5.865440
v 27.985960 1.000000 5.864769
v 27.986677 1.000000 -0.114737
v 27.987392 -1.000000 -6.094242
v 27.987394 1.000000 -6.094242
v 6.812647 1.000000 -21.515453
v 6.812647 -1.000000 -21.515453
v 9.988588 1.000000 -24.245487
v 9.988588 -1.000000 -24.245487
v 9.988937 1.000000 -26.195942
v 9.988937 -1.000000 -26.195942
v 27.988588 1.000000 -24.242266
v 27.988588 -1.000000 -24.242266
v 27.988937 1.000000 -26.192720
v 27.988937 -1.000000 -26.192720
v 2.551422 1.000000 -18.821966
v 2.551422 -1.000000 -18.821966
v 1.253275 3.998071 -24.246349
v 2.144863 1.000000 -17.815922
v 1.913417 1.000000 -16.654356
v 1.913417 -1.000000 -16.654356
v 2.144863 -1.000000 -17.815922
v 1.253275 3.997911 -26.195368
v 9.989048 1.000000 -30.001099
v 9.989048 -1.000000 -30.001099
v 27.989048 1.000000 -29.997877
v 27.989048 -1.000000 -29.997877
v 4.998260 3.997911 -26.195368
v 9.988937 8.001743 -26.195942
v 27.988937 8.000634 -26.192720
v 9.988937 3.995665 -26.195942
v 9.989048 8.001743 -30.001099
v 27.989048 8.000688 -29.997877
v 5.469368 1.000000 -26.195368
v 4.998276 1.000000 -30.000525
v 4.998260 8.001743 -26.195368
v 4.998276 8.001743 -30.000525
v 5.473231 1.000000 -22.790449
v 5.469343 1.000000 -24.244913
v 9.989048 3.995665 -30.001099
v 4.998276 3.997911 -30.000525
v 2.499193 1.000000 -30.000237
v 2.501061 1.000000 -22.244232
v 2.499117 1.000000 -24.244625
v 2.501616 3.997911 -30.000525
v 1.671202 3.997911 -26.195368
v 1.671202 3.998071 -24.246349
v 3.751592 1.000000 -22.790218
v 5.469343 2.518452 -24.244913
v 3.748676 1.000000 -24.244770
v 3.749297 2.519453 -24.245201
v 3.749297 2.519453 -26.197186
v 8.730055 1.000000 -22.739283
v 8.730055 -1.000000 -22.739283
v 30.588259 1.000000 -24.242060
v 30.588259 -1.000000 -24.242060
v 30.588608 1.000000 -26.192514
v 30.588608 -1.000000 -26.192514
v 30.588718 1.000000 -29.997671
v 30.588718 -1.000000 -29.997671
v 30.588718 8.000688 -29.997671
v 30.588608 8.000688 -26.192514
v 27.984287 1.000000 30.032152
v 27.984287 -1.000000 30.032152
v 30.583958 1.000000 30.032358
v 30.583958 -1.000000 30.032358
v 27.986677 8.000634 -0.114738
v 27.988588 8.000634 -24.242266
v 30.586348 -1.000000 -0.114601
v 30.588259 8.000634 -24.242060
v 30.583958 8.000634 30.032354
v 27.984287 8.000634 30.032148
v 30.585630 -1.000000 5.864905
v 30.587065 -1.000000 -6.094106
v 30.585630 1.000000 5.864905
v 30.587065 1.000000 -6.094106
v 30.586348 1.000000 -0.114601
v 30.586348 8.000634 -0.114602
v 30.585630 8.000634 5.864903
v 30.587065 8.000634 -6.094106
v 27.985960 8.000634 5.864767
v 27.987394 8.000634 -6.094243
v -13.468666 -1.000000 0.000000
v -10.379028 -1.000000 0.000000
v -10.379028 -1.000000 -1.913417
v -13.468666 -1.000000 -1.913417
v -13.355861 -0.432889 -1.913417
v -10.491834 -0.432889 -1.913417
v -10.827831 0.069967 -1.913417
v -13.019863 0.069967 -1.913417
v -12.517007 0.405965 -1.913417
v -11.923847 0.523951 -1.913417
v -11.330688 0.405965 -1.913417
v -12.517007 0.405965 1.913417
v -11.923847 0.523951 1.913417
v -11.330688 0.405965 1.913417
v -10.827831 0.069967 1.913417
v -13.355861 -0.432889 1.913417
v -13.468666 -1.000000 1.913417
v -13.019863 0.069967 1.913417
v -10.379028 -1.000000 1.913417
v -10.491834 -0.432889 1.913417
v -1.913417 -1.000000 -9.628267
v -1.913417 -1.000000 -12.717905
v 0.000000 -1.000000 -9.628267
v 0.000000 -1.000000 -12.717905
v -1.913417 0.069966 -10.077070
v -1.913417 0.405964 -10.579926
v -1.913417 0.523951 -11.173086
v -1.913417 0.405964 -11.766246
v -1.913417 -0.432890 -9.741073
v -1.913417 -0.432890 -12.605100
v -1.913417 0.069966 -12.269102
v 1.913417 -1.000000 -9.628267
v 1.913417 -1.000000 -12.717905
v 1.913417 -0.432890 -9.741073
v 1.913417 -0.432890 -12.605100
v 1.913417 0.069966 -12.269102
v 1.913417 0.069966 -10.077070
v 1.913417 0.405964 -11.766246
v 1.913417 0.523951 -11.173086
v 1.913417 0.405964 -10.579926
vn -1.0000 -0.0000 0.0001
vn -0.0000 -1.0000 -0.0000
vn -0.5556 -0.0000 0.8315
vn -0.8315 -0.0000 0.5556
vn -0.0000 1.0000 -0.0001
vn -0.8315 -0.0000 -0.5556
vn -0.0000 1.0000 -0.0000
vn -0.5556 -0.0000 -0.8315
vn 0.6970 -0.0000 -0.7170
vn -0.0000 -0.0000 -1.0000
vn -0.0000 -0.0000 1.0000
vn -1.0000 -0.0000 -0.0000
vn 0.0002 -0.0000 1.0000
vn 0.5350 -0.0000 0.8448
vn 0.6970 -0.0000 0.7170
vn 0.0794 -0.0000 -0.9968
vn 0.5350 -0.0000 -0.8448
vn -0.0001 0.0002 1.0000
vn -0.7674 -0.0000 0.6412
vn -0.4537 -0.0000 0.8912
vn -0.6121 -0.0000 0.7908
vn -0.9807 -0.0000 0.1954
vn -0.0001 0.0006 1.0000
vn -0.9272 -0.0000 0.3747
vn 0.0001 -0.0000 -1.0000
vn -0.0002 -0.0000 -1.0000
vn -0.0001 -0.0000 -1.0000
vn -0.0001 1.0000 -0.0000
vn -0.0001 -0.0000 1.0000
vn 0.0001 -0.0002 -1.0000
vn 1.0000 -0.0000 -0.0000
vn 0.0001 -0.0001 -1.0000
vn 0.0001 0.0004 1.0000
vn 1.0000 0.0004 0.0020
vn -1.0000 -0.0000 -0.0027
vn -0.5797 0.8148 -0.0000
vn -0.0000 1.0000 0.0005
vn 0.0004 -0.0009 1.0000
vn 0.0002 0.0005 1.0000
vn -0.0002 0.6917 0.7222
vn -0.5380 -0.0000 0.8429
vn -1.0000 -0.0000 0.0002
vn 0.0001 -0.0000 1.0000
vn 0.9966 0.0817 0.0067
vn 1.0000 -0.0000 -0.0002
vn 1.0000 -0.0000 -0.0001
vn 1.0000 -0.0000 0.0001
vn 0.5556 -0.0000 0.8315
vn 0.8315 -0.0000 0.5556
vn 0.8315 -0.0000 -0.5556
vn 0.5556 -0.0000 -0.8315
vn -0.6970 -0.0000 -0.7170
vn -0.0002 -0.0000 1.0000
vn -0.5350 -0.0000 0.8448
vn -0.6970 -0.0000 0.7170
vn -0.0794 -0.0000 -0.9968
vn -0.5350 -0.0000 -0.8448
vn 0.0001 0.0002 1.0000
vn 0.7674 -0.0000 0.6412
vn 0.4537 -0.0000 0.8912
vn 0.6121 -0.0000 0.7908
vn 0.9807 -0.0000 0.1954
vn 0.0001 0.0006 1.0000
vn 0.9272 -0.0000 0.3747
vn 0.0002 -0.0000 -1.0000
vn 0.0001 1.0000 -0.0000
vn -0.0001 -0.0002 -1.0000
vn -0.0001 -0.0001 -1.0000
vn -0.0001 0.0004 1.0000
vn -1.0000 0.0004 0.0020
vn 1.0000 -0.0000 -0.0027
vn 0.5797 0.8148 -0.0000
vn -0.0004 -0.0009 1.0000
vn -0.0002 0.0005 1.0000
vn 0.0002 0.6917 0.7222
vn 0.5380 -0.0000 0.8429
vn 1.0000 -0.0000 0.0002
vn -0.9966 0.0817 0.0067
vn -1.0000 -0.0000 -0.0002
vn -1.0000 -0.0000 -0.0001
vn -0.9808 -0.1951 -0.0000
vn -0.8315 -0.5556 -0.0000
vn -0.5556 -0.8315 -0.0000
vn -0.1951 -0.9808 -0.0000
vn 0.1951 -0.9808 -0.0000
vn 0.5556 -0.8315 -0.0000
vn 0.8315 -0.5556 -0.0000
vn 0.9808 -0.1951 -0.0000
vn -0.0000 -0.1951 -0.9808
vn -0.0000 -0.5556 -0.8315
vn -0.0000 -0.8315 -0.5556
vn -0.0000 -0.9808 -0.1951
vn -0.0000 -0.9808 0.1951
vn -0.0000 -0.8315 0.5556
vn -0.0000 -0.5556 0.8315
vn -0.0000 -0.1951 0.9808
vt 0.062500 1.000000
vt 0.658156 0.471731
vt 0.062500 0.500000
vt 0.528269 0.341844
vt 0.510000 0.250000
vt 0.437500 0.500000
vt 0.437500 1.000000
vt 0.375000 1.000000
vt 0.375000 0.500000
vt 0.312500 1.000000
vt 0.312500 0.500000
vt 0.000000 0.000000
vt 0.051019 0.120216
vt 0.187500 0.500000
vt 0.187500 1.000000
vt 0.125000 1.000000
vt 0.125000 0.500000
vt 0.158156 0.471731
vt 0.080294 0.419706
vt 0.028269 0.341844
vt 0.010000 0.250000
vt 0.028269 0.158156
vt 0.080294 0.080294
vt 0.158156 0.028269
vt 0.250000 0.010000
vt 0.250000 0.490000
vt 0.528269 0.158156
vt 0.213095 0.482659
vt 0.194643 0.478989
vt 0.176191 0.475318
vt 0.231548 0.486330
vt 0.187500 0.641778
vt 0.187500 0.767492
vt 0.187500 0.851491
vt 0.187500 0.880988
vt 0.187500 0.851491
vt 0.187500 0.641778
vt 0.658156 0.028269
vt 0.750000 0.010000
vt 0.312500 0.641778
vt 0.312500 0.767492
vt 0.312500 0.851491
vt 0.312500 0.880988
vt 0.312500 0.851491
vt 0.312500 0.767492
vt 0.312500 0.641778
vt 0.500000 0.500000
vt 0.500000 1.000000
vt 0.007812 0.250000
vt 0.158156 0.471731
vt 0.158156 0.471731
vt 0.238519 0.487716
vt 0.750000 0.490000
vt 0.658156 0.471731
vt 0.658156 0.471731
vt 0.158156 0.471731
vt 0.250000 0.490000
vt 0.250000 0.490000
vt 0.750000 0.490000
vt 0.750000 0.490000
vt 0.062500 0.500000
vt 0.062500 1.000000
vt 0.750000 0.490000
vt 0.062500 0.500000
vt 0.062500 0.641777
vt 0.062500 0.767491
vt 0.062500 0.851491
vt 0.062500 0.880988
vt 0.062500 0.851491
vt 0.062500 0.767491
vt 0.062500 0.641777
vt 0.015625 1.000000
vt 0.007812 1.000000
vt 0.000000 1.000000
vt 0.000000 0.500000
vt 0.031250 1.000000
vt 0.204078 0.480866
vt 0.015625 0.500000
vt 0.102039 0.240433
vt 0.580294 0.419706
vt 0.580294 0.080294
vt 0.164539 0.362933
vt 0.227039 0.485433
vt 0.215558 0.483149
vt 0.062500 1.000000
vt 0.158156 0.471731
vt 0.062500 0.641778
vt 0.062500 0.767492
vt 0.062500 0.851491
vt 0.062500 0.851491
vt 0.062500 0.767491
vt 0.062500 0.641777
vt 0.747255 0.767495
vt 0.747255 0.599052
vt 0.687500 0.599052
vt 0.687500 0.935938
vt 0.747255 0.935938
vt 0.625000 0.599052
vt 0.625000 0.935938
vt 0.562500 0.935938
vt 0.562500 0.599052
vt 0.500000 0.935938
vt 0.500000 0.599052
vt 0.437500 0.935938
vt 0.437500 0.599052
vt 0.375000 0.935938
vt 0.375000 0.599052
vt 0.312500 0.935938
vt 0.312500 0.599052
vt 0.252745 0.599052
vt 0.252745 0.767495
vt 0.252745 0.935938
vt 0.750000 0.803456
vt 0.750000 0.635013
vt 0.750000 0.971899
vt 0.687500 0.971899
vt 0.687500 0.635013
vt 0.625000 0.635013
vt 0.625000 0.971899
vt 0.562500 0.635013
vt 0.562500 0.971899
vt 0.500000 0.635013
vt 0.500000 0.971899
vt 0.437500 0.971899
vt 0.437500 0.635013
vt 0.375000 0.635013
vt 0.375000 0.971899
vt 0.312500 0.635013
vt 0.312500 0.803456
vt 0.312500 0.971899
s 0
f 143/1/1 145/1/1 137/2/1 141/2/1
f 145/1/1 144/1/1 142/3/1 137/2/1
f 278/4/2 18/4/2 16/5/2 277/5/2
f 34/5/2 36/4/2 279/4/2 276/5/2
f 10/6/3 11/7/3 13/8/3 12/9/3
f 12/9/4 13/8/4 15/10/4 14/11/4
f 107/12/5 83/13/5 78/13/5 108/12/5
f 18/14/6 19/15/6 21/16/6 20/17/6
f 23/18/7 21/19/7 19/20/7 17/21/7 15/22/7 13/23/7 11/24/7 9/25/7 3/26/7
f 20/17/8 21/16/8 23/1/8 22/3/8
f 37/15/9 36/14/9 44/14/9 45/15/9
f 43/21/7 45/20/7 51/20/7 49/21/7
f 34/5/2 33/27/2 41/27/2 42/5/2
f 35/21/7 37/20/7 45/20/7 43/21/7
f 110/28/7 115/29/7 102/30/7 59/18/7 38/18/7 25/26/7 58/26/7 26/31/7
f 17/21/7 19/20/7 37/20/7 35/21/7
f 36/14/10 37/15/10 19/15/10 18/14/10 278/14/10 281/32/10 282/33/10 286/34/10 285/35/10 284/36/10 283/33/10 280/37/10 279/14/10
f 10/38/2 8/39/2 28/39/2 30/38/2
f 294/11/11 14/11/11 15/10/11 32/10/11 33/11/11 292/11/11 291/40/11 293/41/11 287/42/11 288/43/11 289/44/11 290/45/11 295/46/11
f 9/25/7 11/24/7 31/24/7 29/25/7
f 277/5/2 16/5/2 14/27/2 294/27/2
f 33/27/2 34/5/2 276/5/2 292/27/2
f 11/7/12 10/6/12 30/6/12 31/7/12
f 15/22/7 17/21/7 35/21/7 32/22/7
f 30/6/13 28/47/13 29/48/13 31/7/13
f 41/11/14 40/10/14 48/10/14 46/11/14
f 106/12/7 6/49/7 83/13/7 107/12/7
f 36/4/2 34/5/2 42/5/2 44/4/2
f 32/22/7 35/21/7 43/21/7 40/22/7
f 33/11/15 32/10/15 40/10/15 41/11/15
f 50/4/2 47/5/2 1/5/2 55/4/2
f 51/15/16 50/14/16 55/14/16 56/15/16
f 42/5/2 41/27/2 46/27/2 47/5/2
f 45/15/17 44/14/17 50/14/17 51/15/17
f 44/4/2 42/5/2 47/5/2 50/4/2
f 40/22/7 43/21/7 49/21/7 48/22/7
f 150/50/7 148/18/7 146/18/7 135/51/7
f 144/1/1 145/1/1 146/1/1 148/1/1
f 48/22/7 49/21/7 54/21/7 53/22/7
f 47/5/2 46/27/2 52/27/2 1/5/2
f 49/21/7 51/20/7 56/20/7 54/21/7
f 46/11/18 48/10/18 53/10/18 52/11/18
f 121/3/19 120/1/19 63/1/19 64/3/19
f 26/31/7 58/26/7 62/26/7 7/52/7
f 39/3/20 38/1/20 59/1/20 60/3/20
f 24/53/2 39/54/2 60/54/2 57/53/2
f 136/18/7 94/18/7 130/18/7 138/18/7
f 61/53/2 57/53/2 60/54/2 121/54/2 64/54/2
f 67/54/2 71/54/2 91/54/2 89/54/2
f 61/53/2 64/54/2 67/54/2 65/53/2
f 64/3/13 63/1/13 68/1/13 69/3/13
f 143/1/1 133/1/1 139/1/1 147/1/1
f 67/54/2 64/54/2 69/54/2 71/54/2
f 63/18/7 66/18/7 70/18/7 68/18/7
f 72/53/2 74/55/2 39/54/2 24/53/2
f 73/18/7 75/26/7 25/26/7 38/18/7
f 74/3/21 73/1/21 38/1/21 39/3/21
f 80/56/7 84/57/7 85/58/7 79/18/7
f 77/59/2 81/2/2 82/54/2 76/60/2
f 81/61/22 80/62/22 79/1/22 82/3/22
f 74/55/2 72/53/2 76/60/2 82/54/2
f 2/53/2 22/54/2 296/2/2 298/53/2
f 297/2/2 81/2/2 77/59/2 299/63/2
f 62/26/23 108/12/23 78/13/23 7/52/23
f 73/1/24 74/3/24 82/3/24 79/1/24
f 75/26/7 73/18/7 79/18/7 85/58/7
f 22/3/12 23/1/12 80/62/12 81/61/12 297/64/12 305/65/12 306/66/12 303/67/12 302/68/12 301/69/12 300/70/12 304/71/12 296/3/12
f 23/18/7 3/26/7 84/57/7 80/56/7
f 109/72/25 27/73/25 87/74/25 86/75/25 89/3/25 88/1/25 99/76/25
f 88/1/26 89/3/26 91/3/26 90/1/26
f 65/53/2 67/54/2 89/54/2 86/53/2
f 97/1/27 90/1/27 127/1/27 129/1/27
f 104/1/26 88/1/26 90/1/26 97/1/26 96/1/26
f 94/18/28 93/18/28 96/18/28 97/18/28
f 105/76/25 104/1/25 96/1/25 101/76/25
f 95/18/13 93/18/13 94/18/13 70/18/13 66/18/13
f 99/76/25 88/1/25 104/1/25 105/76/25
f 95/18/29 92/77/29 100/77/29 93/18/29
f 93/18/7 100/77/7 101/77/7 96/18/7
f 98/77/29 5/77/29 92/77/29 95/18/29 66/18/29
f 120/18/7 59/18/7 102/30/7 103/77/7 63/18/7
f 63/18/7 103/77/7 98/77/7 66/18/7
f 27/73/30 6/49/30 106/12/30 87/74/30
f 112/78/7 105/76/7 92/77/7 113/79/7
f 100/77/31 92/77/31 105/76/31 101/77/31
f 20/80/2 22/54/2 2/53/2 8/39/2 10/38/2 12/81/2 14/27/2 16/5/2 18/4/2
f 83/13/5 113/79/5 114/79/5 78/13/5
f 6/49/7 112/78/7 113/79/7 83/13/7
f 99/76/25 105/76/25 112/78/25 109/72/25
f 78/13/23 114/79/23 4/82/23 111/83/23 7/52/23
f 115/29/7 110/28/7 111/83/7 117/84/7
f 109/72/32 112/78/32 6/49/32 27/73/32
f 110/28/7 26/31/7 7/52/7 111/83/7
f 98/77/12 103/77/12 116/77/12 5/77/12
f 117/84/33 111/83/33 4/83/33 118/84/33
f 117/84/34 118/84/34 115/29/34
f 103/77/35 102/30/35 116/77/35
f 118/12/36 114/12/36 113/12/36 119/12/36
f 116/77/37 118/84/37 119/84/37 5/77/37
f 5/77/38 119/84/38 113/12/38 92/77/38
f 4/83/39 114/12/39 118/84/39
f 115/29/40 118/84/40 116/77/40 102/30/40
f 60/3/41 59/1/41 120/1/41 121/3/41
f 122/12/11 101/12/11 105/12/11 112/12/11 6/12/11 106/12/11
f 126/3/12 125/1/12 127/1/12 128/3/12
f 124/3/42 123/1/42 125/1/42 126/3/42
f 127/1/12 125/1/12 130/1/12 129/1/12
f 91/54/2 71/54/2 126/54/2 128/54/2
f 141/2/2 52/2/2 132/54/2 134/54/2
f 94/18/7 97/18/7 129/18/7 130/18/7
f 90/1/27 91/3/27 128/3/27 127/1/27
f 71/54/2 69/54/2 124/54/2 126/54/2
f 132/3/43 131/1/43 133/1/43 134/3/43
f 143/1/1 141/3/1 134/3/1 133/1/1
f 125/1/42 123/1/42 138/1/42 130/1/42
f 52/61/44 53/85/44 131/1/44 132/3/44
f 149/86/7 147/18/7 139/18/7 140/18/7
f 68/18/45 70/18/45 94/18/45 136/18/45
f 133/1/43 131/1/43 140/1/43 139/1/43
f 56/1/46 68/1/46 136/1/46 150/1/46
f 131/1/46 53/85/46 149/1/46 140/1/46
f 54/1/46 56/1/46 150/1/46 135/1/46
f 136/18/7 138/18/7 148/18/7 150/50/7
f 135/51/7 146/18/7 147/18/7 149/86/7
f 69/3/46 68/1/46 56/1/46 55/3/46
f 142/2/2 55/2/2 1/2/2 137/2/2
f 123/1/1 124/3/1 142/3/1 144/1/1
f 53/85/46 54/1/46 135/1/46 149/1/46
f 124/54/2 69/54/2 55/2/2 142/2/2
f 137/2/2 1/2/2 52/2/2 141/2/2
f 123/1/1 144/1/1 148/1/1 138/1/1
f 145/1/1 143/1/1 147/1/1 146/1/1
f 268/1/47 266/2/47 262/2/47 270/1/47
f 270/1/47 262/2/47 267/3/47 269/1/47
f 164/4/2 178/4/2 176/5/2 162/5/2
f 156/6/48 158/9/48 159/8/48 157/7/48
f 158/9/49 160/11/49 161/10/49 159/8/49
f 107/12/5 108/12/5 211/13/5 216/13/5
f 164/14/50 166/17/50 167/16/50 165/15/50
f 169/18/7 3/26/7 9/25/7 157/24/7 159/23/7 161/22/7 163/21/7 165/20/7 167/19/7
f 166/17/51 168/3/51 169/1/51 167/16/51
f 179/15/52 187/15/52 186/14/52 178/14/52
f 185/21/7 191/21/7 193/20/7 187/20/7
f 176/5/2 184/5/2 183/27/2 175/27/2
f 177/21/7 185/21/7 187/20/7 179/20/7
f 58/26/7 25/26/7 180/18/7 199/18/7 231/30/7 241/29/7 236/28/7 170/31/7
f 163/21/7 177/21/7 179/20/7 165/20/7
f 165/15/10 179/15/10 178/14/10 164/14/10
f 156/38/2 172/38/2 28/39/2 8/39/2
f 160/11/11 175/11/11 174/10/11 161/10/11
f 9/25/7 29/25/7 173/24/7 157/24/7
f 162/5/2 176/5/2 175/27/2 160/27/2
f 157/7/31 173/7/31 172/6/31 156/6/31
f 161/22/7 174/22/7 177/21/7 163/21/7
f 172/6/53 173/7/53 29/48/53 28/47/53
f 183/11/54 188/11/54 190/10/54 182/10/54
f 106/12/7 107/12/7 216/13/7 154/49/7
f 178/4/2 186/4/2 184/5/2 176/5/2
f 174/22/7 182/22/7 185/21/7 177/21/7
f 175/11/55 183/11/55 182/10/55 174/10/55
f 192/4/2 197/4/2 151/5/2 189/5/2
f 193/15/56 198/15/56 197/14/56 192/14/56
f 184/5/2 189/5/2 188/27/2 183/27/2
f 187/15/57 193/15/57 192/14/57 186/14/57
f 186/4/2 192/4/2 189/5/2 184/5/2
f 182/22/7 190/22/7 191/21/7 185/21/7
f 275/50/7 260/51/7 271/18/7 273/18/7
f 269/1/47 273/1/47 271/1/47 270/1/47
f 190/22/7 195/22/7 196/21/7 191/21/7
f 189/5/2 151/5/2 194/27/2 188/27/2
f 191/21/7 196/21/7 198/20/7 193/20/7
f 188/11/58 194/11/58 195/10/58 190/10/58
f 247/3/59 202/3/59 201/1/59 246/1/59
f 170/31/7 155/52/7 62/26/7 58/26/7
f 181/3/60 200/3/60 199/1/60 180/1/60
f 24/53/2 57/53/2 200/54/2 181/54/2
f 261/18/7 263/18/7 255/18/7 223/18/7
f 200/54/2 57/53/2 61/53/2 202/54/2 247/54/2
f 204/54/2 218/54/2 220/54/2 208/54/2
f 61/53/2 65/53/2 204/54/2 202/54/2
f 202/3/53 206/3/53 205/1/53 201/1/53
f 268/1/47 272/1/47 264/1/47 258/1/47
f 204/54/2 208/54/2 206/54/2 202/54/2
f 201/18/7 205/18/7 207/18/7 203/18/7
f 72/53/2 24/53/2 181/54/2 210/55/2
f 209/18/7 180/18/7 25/26/7 75/26/7
f 210/3/61 181/3/61 180/1/61 209/1/61
f 213/56/7 212/18/7 85/58/7 84/57/7
f 77/59/2 76/60/2 215/54/2 214/2/2
f 214/61/62 215/3/62 212/1/62 213/62/62
f 210/55/2 215/54/2 76/60/2 72/53/2
f 168/54/2 2/53/2 298/53/2 307/2/2
f 299/63/2 77/59/2 214/2/2 308/2/2
f 62/26/63 155/52/63 211/13/63 108/12/63
f 209/1/64 212/1/64 215/3/64 210/3/64
f 75/26/7 85/58/7 212/18/7 209/18/7
f 308/61/31 214/61/31 213/62/31 169/1/31 168/3/31 307/3/31 309/87/31 312/88/31 315/89/31 314/68/31 313/90/31 311/91/31 310/92/31
f 169/18/7 213/56/7 84/57/7 3/26/7
f 217/1/27 218/3/27 86/75/27 87/74/27 171/73/27 235/72/27 228/76/27
f 217/1/65 219/1/65 220/3/65 218/3/65
f 65/53/2 86/53/2 218/54/2 204/54/2
f 226/1/25 254/1/25 252/1/25 219/1/25
f 233/1/65 225/1/65 226/1/65 219/1/65 217/1/65
f 223/18/66 226/18/66 225/18/66 222/18/66
f 234/76/27 230/76/27 225/1/27 233/1/27
f 223/18/53 222/18/53 224/18/53 203/18/53 207/18/53
f 228/76/27 234/76/27 233/1/27 217/1/27
f 224/18/43 222/18/43 229/77/43 221/77/43
f 222/18/7 225/18/7 230/77/7 229/77/7
f 224/18/43 221/77/43 153/77/43 227/77/43 203/18/43
f 246/18/7 201/18/7 232/77/7 231/30/7 199/18/7
f 201/18/7 203/18/7 227/77/7 232/77/7
f 171/73/67 87/74/67 106/12/67 154/49/67
f 238/78/7 239/79/7 221/77/7 234/76/7
f 229/77/12 230/77/12 234/76/12 221/77/12
f 162/5/2 160/27/2 158/81/2 156/38/2 8/39/2 2/53/2 168/54/2 166/80/2 164/4/2
f 216/13/5 211/13/5 240/79/5 239/79/5
f 154/49/7 216/13/7 239/79/7 238/78/7
f 228/76/27 235/72/27 238/78/27 234/76/27
f 237/83/63 152/82/63 240/79/63 211/13/63 155/52/63
f 241/29/7 243/84/7 237/83/7 236/28/7
f 235/72/68 171/73/68 154/49/68 238/78/68
f 236/28/7 237/83/7 155/52/7 170/31/7
f 227/77/31 153/77/31 242/77/31 232/77/31
f 243/84/69 244/84/69 152/83/69 237/83/69
f 243/84/70 241/29/70 244/84/70
f 232/77/71 242/77/71 231/30/71
f 244/12/72 245/12/72 239/12/72 240/12/72
f 242/77/37 153/77/37 245/84/37 244/84/37
f 153/77/73 221/77/73 239/12/73 245/84/73
f 152/83/74 244/84/74 240/12/74
f 241/29/75 231/30/75 242/77/75 244/84/75
f 200/3/76 247/3/76 246/1/76 199/1/76
f 234/12/11 230/12/11 122/12/11 106/12/11 154/12/11 238/12/11
f 251/3/31 253/3/31 252/1/31 250/1/31
f 249/3/77 251/3/77 250/1/77 248/1/77
f 252/1/31 254/1/31 255/1/31 250/1/31
f 220/54/2 253/54/2 251/54/2 208/54/2
f 266/2/2 259/54/2 257/54/2 194/2/2
f 223/18/7 255/18/7 254/18/7 226/18/7
f 219/1/25 252/1/25 253/3/25 220/3/25
f 208/54/2 251/54/2 249/54/2 206/54/2
f 257/3/29 259/3/29 258/1/29 256/1/29
f 268/1/47 258/1/47 259/3/47 266/3/47
f 250/1/77 255/1/77 263/1/77 248/1/77
f 194/61/78 257/3/78 256/1/78 195/85/78
f 274/86/7 265/18/7 264/18/7 272/18/7
f 205/18/79 261/18/79 223/18/79 207/18/79
f 258/1/29 264/1/29 265/1/29 256/1/29
f 198/1/80 275/1/80 261/1/80 205/1/80
f 256/1/80 265/1/80 274/1/80 195/85/80
f 196/1/80 260/1/80 275/1/80 198/1/80
f 261/18/7 275/50/7 273/18/7 263/18/7
f 260/51/7 274/86/7 272/18/7 271/18/7
f 206/3/80 197/3/80 198/1/80 205/1/80
f 267/2/2 262/2/2 151/2/2 197/2/2
f 248/1/47 269/1/47 267/3/47 249/3/47
f 195/85/80 274/1/80 260/1/80 196/1/80
f 249/54/2 267/2/2 197/2/2 206/54/2
f 262/2/2 266/2/2 194/2/2 151/2/2
f 248/1/47 263/1/47 273/1/47 269/1/47
f 270/1/47 271/1/47 272/1/47 268/1/47
f 277/93/81 294/94/81 295/95/81 281/96/81 278/97/81
f 290/98/82 282/99/82 281/96/82 295/95/82
f 286/100/83 282/99/83 290/98/83 289/101/83
f 285/102/84 286/100/84 289/101/84 288/103/84
f 284/104/85 285/102/85 288/103/85 287/105/85
f 283/106/86 284/104/86 287/105/86 293/107/86
f 280/108/87 283/106/87 293/107/87 291/109/87
f 292/110/88 276/111/88 279/112/88 280/108/88 291/109/88
f 298/113/89 296/114/89 304/114/89 309/115/89 307/115/89
f 309/116/90 304/117/90 300/117/90 312/116/90
f 301/118/91 315/119/91 312/119/91 300/118/91
f 302/120/92 314/121/92 315/121/92 301/120/92
f 303/122/93 313/123/93 314/123/93 302/122/93
f 313/124/94 303/125/94 306/125/94 311/124/94
f 306/126/95 305/126/95 310/127/95 311/127/95
f 297/128/96 299/129/96 308/130/96 310/130/96 305/128/96
